<svg width="1440" height="364" viewBox="0 0 1440 364" fill="none" xmlns="http://www.w3.org/2000/svg">
<g clip-path="url(#clip0_566_346)">
<rect width="1440" height="364" fill="#FEF6EE"/>
<rect width="1440" height="1" fill="#FEF6EE"/>
<mask id="mask0_566_346" style="mask-type:alpha" maskUnits="userSpaceOnUse" x="0" y="-486" width="1440" height="1024">
<rect y="-486" width="1440" height="1024" fill="url(#paint0_radial_566_346)"/>
</mask>
<g mask="url(#mask0_566_346)">
<g style="mix-blend-mode:multiply" opacity="0.3">
<path d="M432.097 1093C1549.15 1075 1007.7 373 2015 373L1958.9 340C951.601 340 1493.06 1042 376 1060L432.097 1093Z" fill="#FEF6EE"/>
<path d="M432.097 1093C1549.15 1075 1007.7 373 2015 373L1958.9 340C951.601 340 1493.06 1042 376 1060L432.097 1093Z" stroke="#FCE9D5"/>
</g>
<g style="mix-blend-mode:multiply" opacity="0.3">
<path d="M378.131 1057C1495.87 1039 954.083 337 1962 337L1905.87 304C897.952 304 1439.74 1006 322 1024L378.131 1057Z" fill="#FEF6EE"/>
<path d="M378.131 1057C1495.87 1039 954.083 337 1962 337L1905.87 304C897.952 304 1439.74 1006 322 1024L378.131 1057Z" stroke="#FCE9D5"/>
</g>
<g style="mix-blend-mode:multiply" opacity="0.3">
<path d="M326.097 1021C1443.15 1003 901.698 301 1909 301L1852.9 268C845.601 268 1387.06 970 270 988L326.097 1021Z" fill="#FEF6EE"/>
<path d="M326.097 1021C1443.15 1003 901.698 301 1909 301L1852.9 268C845.601 268 1387.06 970 270 988L326.097 1021Z" stroke="#FCE9D5"/>
</g>
<g style="mix-blend-mode:multiply" opacity="0.3">
<path d="M272.097 985C1389.15 967 847.698 265 1855 265L1798.9 232C791.601 232 1333.06 934 216 952L272.097 985Z" fill="#F8D3B0"/>
<path d="M272.097 985C1389.15 967 847.698 265 1855 265L1798.9 232C791.601 232 1333.06 934 216 952L272.097 985Z" stroke="#F4B37D"/>
</g>
<g style="mix-blend-mode:multiply" opacity="0.3">
<path d="M218.131 949C1335.87 931 794.083 229 1802 229L1745.87 196C737.952 196 1279.74 898 162 916L218.131 949Z" fill="#F8D3B0"/>
<path d="M218.131 949C1335.87 931 794.083 229 1802 229L1745.87 196C737.952 196 1279.74 898 162 916L218.131 949Z" stroke="#F4B37D"/>
</g>
<g style="mix-blend-mode:multiply" opacity="0.3">
<path d="M161.097 914C1278.15 896 736.698 194 1744 194L1687.9 161C680.601 161 1222.06 863 105 881L161.097 914Z" fill="#F8D3B0"/>
<path d="M161.097 914C1278.15 896 736.698 194 1744 194L1687.9 161C680.601 161 1222.06 863 105 881L161.097 914Z" stroke="#F4B37D"/>
</g>
<g style="mix-blend-mode:multiply" opacity="0.3">
<path d="M104.131 878C1221.87 860 680.083 158 1688 158L1631.87 125C623.952 125 1165.74 827 48 845L104.131 878Z" fill="#F8D3B0"/>
<path d="M104.131 878C1221.87 860 680.083 158 1688 158L1631.87 125C623.952 125 1165.74 827 48 845L104.131 878Z" stroke="#F4B37D"/>
</g>
<g style="mix-blend-mode:multiply" opacity="0.3">
<path d="M49.0967 841C1166.15 823 624.698 121 1632 121L1575.9 88C568.601 88 1110.06 790 -7 808L49.0967 841Z" fill="#F8D3B0"/>
<path d="M49.0967 841C1166.15 823 624.698 121 1632 121L1575.9 88C568.601 88 1110.06 790 -7 808L49.0967 841Z" stroke="#F4B37D"/>
</g>
<g style="mix-blend-mode:multiply" opacity="0.2">
<path d="M-7.86905 805C1109.87 787 568.083 85 1576 85L1519.87 52C511.952 52 1053.74 754 -64 772L-7.86905 805Z" fill="#F8D3B0"/>
<path d="M-7.86905 805C1109.87 787 568.083 85 1576 85L1519.87 52C511.952 52 1053.74 754 -64 772L-7.86905 805Z" stroke="#F4B37D"/>
</g>
<g style="mix-blend-mode:multiply" opacity="0.2">
<path d="M-63.9375 770C1052.44 752 511.312 50 1518 50L1461.94 17C455.25 17 996.375 719 -120 737L-63.9375 770Z" fill="#F8D3B0"/>
<path d="M-63.9375 770C1052.44 752 511.312 50 1518 50L1461.94 17C455.25 17 996.375 719 -120 737L-63.9375 770Z" stroke="#F4B37D"/>
</g>
<g style="mix-blend-mode:multiply" opacity="0.2">
<path d="M-119.903 733C997.153 715 455.698 13 1463 13L1406.9 -20C399.601 -20 941.057 682 -176 700L-119.903 733Z" fill="#F8D3B0"/>
<path d="M-119.903 733C997.153 715 455.698 13 1463 13L1406.9 -20C399.601 -20 941.057 682 -176 700L-119.903 733Z" stroke="#F4B37D"/>
</g>
<g style="mix-blend-mode:multiply" opacity="0.3">
<path d="M-423.903 588C693.153 570 151.698 -132 1159 -132L1102.9 -165C95.6012 -165 637.057 537 -480 555L-423.903 588Z" fill="#FEF6EE"/>
<path d="M-423.903 588C693.153 570 151.698 -132 1159 -132L1102.9 -165C95.6012 -165 637.057 537 -480 555L-423.903 588Z" stroke="#FCE9D5"/>
</g>
<g style="mix-blend-mode:multiply" opacity="0.3">
<path d="M-460.869 565C656.869 547 115.083 -155 1123 -155L1066.87 -188C58.9524 -188 600.738 514 -517 532L-460.869 565Z" fill="#FEF6EE"/>
<path d="M-460.869 565C656.869 547 115.083 -155 1123 -155L1066.87 -188C58.9524 -188 600.738 514 -517 532L-460.869 565Z" stroke="#FCE9D5"/>
</g>
<g style="mix-blend-mode:multiply" opacity="0.3">
<path d="M-514.903 529C602.153 511 60.6979 -191 1068 -191L1011.9 -224C4.6012 -224 546.057 478 -571 496L-514.903 529Z" fill="#FEF6EE"/>
<path d="M-514.903 529C602.153 511 60.6979 -191 1068 -191L1011.9 -224C4.6012 -224 546.057 478 -571 496L-514.903 529Z" stroke="#FCE9D5"/>
</g>
<g style="mix-blend-mode:multiply" opacity="0.3">
<path d="M-568.903 493C548.153 475 6.69794 -227 1014 -227L957.903 -260C-49.3988 -260 492.057 442 -625 460L-568.903 493Z" fill="#F8D3B0"/>
<path d="M-568.903 493C548.153 475 6.69794 -227 1014 -227L957.903 -260C-49.3988 -260 492.057 442 -625 460L-568.903 493Z" stroke="#F4B37D"/>
</g>
<g style="mix-blend-mode:multiply" opacity="0.3">
<path d="M-625.869 457C491.869 439 -49.9167 -263 958 -263L901.869 -296C-106.048 -296 435.738 406 -682 424L-625.869 457Z" fill="#F8D3B0"/>
<path d="M-625.869 457C491.869 439 -49.9167 -263 958 -263L901.869 -296C-106.048 -296 435.738 406 -682 424L-625.869 457Z" stroke="#F4B37D"/>
</g>
<g style="mix-blend-mode:multiply" opacity="0.3">
<path d="M-682.903 422C434.153 404 -107.302 -298 900 -298L843.903 -331C-163.399 -331 378.057 371 -739 389L-682.903 422Z" fill="#F8D3B0"/>
<path d="M-682.903 422C434.153 404 -107.302 -298 900 -298L843.903 -331C-163.399 -331 378.057 371 -739 389L-682.903 422Z" stroke="#F4B37D"/>
</g>
<g style="mix-blend-mode:multiply" opacity="0.3">
<path d="M-739.869 386C377.869 368 -163.917 -334 844 -334L787.869 -367C-220.048 -367 321.738 335 -796 353L-739.869 386Z" fill="#F8D3B0"/>
<path d="M-739.869 386C377.869 368 -163.917 -334 844 -334L787.869 -367C-220.048 -367 321.738 335 -796 353L-739.869 386Z" stroke="#F4B37D"/>
</g>
<g style="mix-blend-mode:multiply" opacity="0.3">
<path d="M-794.903 349C322.153 331 -219.302 -371 788 -371L731.903 -404C-275.399 -404 266.057 298 -851 316L-794.903 349Z" fill="#F8D3B0"/>
<path d="M-794.903 349C322.153 331 -219.302 -371 788 -371L731.903 -404C-275.399 -404 266.057 298 -851 316L-794.903 349Z" stroke="#F4B37D"/>
</g>
<g style="mix-blend-mode:multiply" opacity="0.2">
<path d="M-851.869 313C265.869 295 -275.917 -407 732 -407L675.869 -440C-332.048 -440 209.738 262 -908 280L-851.869 313Z" fill="#F8D3B0"/>
<path d="M-851.869 313C265.869 295 -275.917 -407 732 -407L675.869 -440C-332.048 -440 209.738 262 -908 280L-851.869 313Z" stroke="#F4B37D"/>
</g>
<g style="mix-blend-mode:multiply" opacity="0.2">
<path d="M-907.938 278C208.438 260 -332.688 -442 674 -442L617.938 -475C-388.75 -475 152.375 227 -964 245L-907.938 278Z" fill="#F8D3B0"/>
<path d="M-907.938 278C208.438 260 -332.688 -442 674 -442L617.938 -475C-388.75 -475 152.375 227 -964 245L-907.938 278Z" stroke="#F4B37D"/>
</g>
<g style="mix-blend-mode:multiply" opacity="0.2">
<path d="M-963.903 241C153.153 223 -388.302 -479 619 -479L562.903 -512C-444.399 -512 97.0565 190 -1020 208L-963.903 241Z" fill="#F8D3B0"/>
<path d="M-963.903 241C153.153 223 -388.302 -479 619 -479L562.903 -512C-444.399 -512 97.0565 190 -1020 208L-963.903 241Z" stroke="#F4B37D"/>
</g>
</g>
</g>
<defs>
<radialGradient id="paint0_radial_566_346" cx="0" cy="0" r="1" gradientUnits="userSpaceOnUse" gradientTransform="translate(720 -158.5) rotate(90) scale(724.5 1018.83)">
<stop stop-color="#FCE9D5"/>
<stop offset="0.855072" stop-color="#FEF6EE" stop-opacity="0"/>
</radialGradient>
<clipPath id="clip0_566_346">
<rect width="1440" height="364" fill="white"/>
</clipPath>
</defs>
</svg>
