<svg viewBox="0 0 20 20" fill="none" xmlns="http://www.w3.org/2000/svg">
    <path
        fill-rule="evenodd"
        clip-rule="evenodd"
        d="M10.7835 0.943599C10.3834 0.454917 9.6361 0.454917 9.236 0.943599L8.44604 1.90847C8.17411 2.24062 7.72052 2.36216 7.31895 2.21048L6.15238 1.76985C5.56155 1.54669 4.91436 1.92035 4.8122 2.5436L4.61051 3.77419C4.54108 4.19781 4.20904 4.52985 3.78542 4.59928L2.55484 4.80097C1.93158 4.90313 1.55792 5.55032 1.78108 6.14115L2.22171 7.30772C2.37339 7.70929 2.25185 8.16288 1.9197 8.43481L0.95483 9.22477C0.466148 9.62487 0.466147 10.3722 0.954829 10.7723L1.9197 11.5622C2.25185 11.8342 2.37339 12.2878 2.22171 12.6893L1.78108 13.8559C1.55792 14.4467 1.93158 15.0939 2.55484 15.1961L3.78542 15.3978C4.20904 15.4672 4.54108 15.7992 4.61051 16.2229L4.8122 17.4534C4.91436 18.0767 5.56155 18.4504 6.15238 18.2272L7.31895 17.7866C7.72052 17.6349 8.17411 17.7564 8.44604 18.0886L9.236 19.0535C9.6361 19.5421 10.3834 19.5421 10.7835 19.0535L11.5735 18.0886C11.8454 17.7564 12.299 17.6349 12.7006 17.7866L13.8671 18.2272C14.458 18.4504 15.1052 18.0767 15.2073 17.4534L15.409 16.2229C15.4784 15.7992 15.8105 15.4672 16.2341 15.3978L17.4647 15.1961C18.0879 15.0939 18.4616 14.4467 18.2384 13.8559L17.7978 12.6893C17.6461 12.2878 17.7677 11.8342 18.0998 11.5622L19.0647 10.7723C19.5534 10.3722 19.5534 9.62487 19.0647 9.22478L18.0998 8.43481C17.7677 8.16288 17.6461 7.70929 17.7978 7.30772L18.2384 6.14115C18.4616 5.55032 18.0879 4.90313 17.4647 4.80097L16.2341 4.59928C15.8105 4.52985 15.4784 4.19781 15.409 3.77419L15.2073 2.54361C15.1052 1.92035 14.458 1.54669 13.8671 1.76985L12.7006 2.21048C12.299 2.36216 11.8454 2.24062 11.5735 1.90847L10.7835 0.943599ZM13.5029 7.49591C13.3065 7.30179 12.9899 7.3036 12.7957 7.49996L8.92649 11.4119L7.25946 9.53742C7.07595 9.33107 6.75991 9.31256 6.55356 9.49607C6.34722 9.67958 6.3287 9.99562 6.51221 10.202L8.8858 12.8709L9.90713 11.8496L13.5073 8.20316C13.7013 8.00663 13.6994 7.69003 13.5029 7.49591Z"
        fill="#0DBFAF"
    />
</svg>