<svg width="18" height="21" viewBox="0 0 18 21" fill="none" xmlns="http://www.w3.org/2000/svg">
<path fill-rule="evenodd" clip-rule="evenodd" d="M9.49931 0.95624C9.18991 0.777607 8.80871 0.777607 8.49931 0.95624L0.705078 5.45624C0.395677 5.63487 0.205078 5.965 0.205078 6.32227V15.3223C0.205078 15.6795 0.395677 16.0097 0.705078 16.1883L8.49931 20.6883C8.80871 20.8669 9.18991 20.8669 9.49931 20.6883L17.2935 16.1883C17.6029 16.0097 17.7935 15.6795 17.7935 15.3223V6.32227C17.7935 5.965 17.6029 5.63487 17.2935 5.45624L9.49931 0.95624ZM2.20508 14.7449V6.89962L8.99931 2.97697L15.7935 6.89962V14.7449L8.99931 18.6676L2.20508 14.7449ZM3.48481 8.67976L7.99931 11.3885V16.8223H9.99931V11.3885L14.5138 8.67976L13.4848 6.96477L8.99931 9.65608L4.5138 6.96477L3.48481 8.67976Z" fill="white"/>
</svg>
