<svg
        width="21"
        height="20"
        viewBox="0 0 21 20"
        fill="none"
        xmlns="http://www.w3.org/2000/svg"
      >
        <path
          d="M9.15234 16H11.1523V14H9.15234V16ZM10.1523 0C4.63234 0 0.152344 4.48 0.152344 10C0.152344 15.52 4.63234 20 10.1523 20C15.6723 20 20.1523 15.52 20.1523 10C20.1523 4.48 15.6723 0 10.1523 0ZM10.1523 18C5.74234 18 2.15234 14.41 2.15234 10C2.15234 5.59 5.74234 2 10.1523 2C14.5623 2 18.1523 5.59 18.1523 10C18.1523 14.41 14.5623 18 10.1523 18ZM10.1523 4C7.94234 4 6.15234 5.79 6.15234 8H8.15234C8.15234 6.9 9.05234 6 10.1523 6C11.2523 6 12.1523 6.9 12.1523 8C12.1523 10 9.15234 9.75 9.15234 13H11.1523C11.1523 10.75 14.1523 10.5 14.1523 8C14.1523 5.79 12.3623 4 10.1523 4Z"
          fill="#7B7B7B"
        />
      </svg>