<svg xmlns="http://www.w3.org/2000/svg" width="16" height="16" viewBox="0 0 24 24" fill="none">
  <path fill-rule="evenodd" clip-rule="evenodd" d="M20 12C20 16.4183 16.4183 20 12 20C7.58172 20 4 16.4183 4 12C4 7.58172 7.58172 4 12 4C16.4183 4 20 7.58172 20 12ZM22 12C22 17.5228 17.5228 22 12 22C6.47715 22 2 17.5228 2 12C2 6.47715 6.47715 2 12 2C17.5228 2 22 6.47715 22 12ZM15.0262 7.5075C15.2204 7.19167 15.5637 7 15.9346 7C16.2171 7.00011 16.488 7.11239 16.6878 7.31218C16.8876 7.51196 16.9999 7.78288 17 8.06542V15.9354C16.9997 16.2179 16.8872 16.4888 16.6872 16.6884C16.4873 16.888 16.2163 17.0001 15.9337 17H15.7167C15.4033 16.9996 15.1058 16.8617 14.9033 16.6225L8.685 9.17667C8.67405 9.16345 8.65929 9.15394 8.64273 9.14943C8.62618 9.14492 8.60863 9.14563 8.5925 9.15147C8.57636 9.1573 8.56242 9.16798 8.55257 9.18203C8.54273 9.19609 8.53747 9.21284 8.5375 9.23V14.8183C8.53728 14.8345 8.54178 14.8504 8.55043 14.864C8.55908 14.8777 8.57152 14.8885 8.58622 14.8952C8.60093 14.902 8.61727 14.9042 8.63325 14.9018C8.64924 14.8994 8.66418 14.8924 8.67625 14.8817L10.7337 13.0971C10.7744 13.0617 10.8265 13.0422 10.8804 13.0424C10.9344 13.0426 10.9864 13.0624 11.0268 13.0981C11.0672 13.1338 11.0932 13.183 11.1 13.2364C11.1068 13.2899 11.0939 13.3441 11.0637 13.3887L8.97333 16.4921C8.8519 16.6898 8.66922 16.8425 8.45306 16.927C8.2369 17.0114 7.99908 17.023 7.77576 16.9599C7.55243 16.8968 7.35581 16.7625 7.21579 16.5774C7.07577 16.3924 7 16.1666 7 15.9346V8.06542C7 7.78285 7.11225 7.51186 7.31205 7.31205C7.51186 7.11225 7.78285 7 8.06542 7H8.2825C8.43733 6.99993 8.59032 7.03363 8.73079 7.09875C8.87127 7.16388 8.99584 7.25886 9.09583 7.37708L15.315 14.8221C15.3259 14.8353 15.3407 14.8448 15.3573 14.8493C15.3738 14.8538 15.3914 14.8531 15.4075 14.8473C15.4236 14.8414 15.4376 14.8308 15.4474 14.8167C15.4573 14.8027 15.4625 14.7859 15.4625 14.7687V9.18125C15.4627 9.16504 15.4582 9.14912 15.4495 9.13545C15.4408 9.12177 15.4283 9.11093 15.4135 9.10426C15.3987 9.09758 15.3823 9.09535 15.3663 9.09785C15.3503 9.10035 15.3354 9.10747 15.3233 9.11833L13.2658 10.9025C13.2252 10.9379 13.173 10.9574 13.1191 10.9572C13.0652 10.957 13.0132 10.9372 12.9728 10.9015C12.9324 10.8658 12.9064 10.8166 12.8996 10.7631C12.8928 10.7096 12.9057 10.6555 12.9358 10.6108L15.0262 7.5075Z" fill="currentColor"/>
</svg>