<svg width="200" height="212" viewBox="0 0 200 212" fill="none" xmlns="http://www.w3.org/2000/svg">
<ellipse cx="100" cy="200" rx="100" ry="12" fill="#F7F7F7"/>
<path d="M150.749 157.795L115.868 177.693L83.0036 196.422L15.2578 79.5745L31.0714 70.5576L71.7153 140.676V21.4727L94.2917 34.5067V153.71L100.054 150.422L128.19 134.388L134.936 130.54L135.97 132.32L150.749 157.795Z" fill="#DBDBDB" stroke="white" stroke-width="3.38983" stroke-linecap="round" stroke-linejoin="round"/>
<path d="M71.7144 65.2534V140.677L31.0703 70.5585L64.9686 53.6094L71.7144 65.2534Z" fill="#DBDBDB" stroke="white" stroke-width="3.38983" stroke-linecap="round" stroke-linejoin="round"/>
<path d="M128.187 17.5586V134.389L100.052 150.423L94.2891 153.711V34.5077L105.611 28.8466L128.187 17.5586Z" fill="#DBDBDB" stroke="white" stroke-width="3.38983" stroke-linecap="round" stroke-linejoin="round"/>
<path d="M128.186 17.5575L105.609 28.8454L94.2874 34.5066L71.7109 21.4726L105.609 4.52344L128.186 17.5575Z" fill="#DBDBDB" stroke="white" stroke-width="3.38983" stroke-linecap="round" stroke-linejoin="round"/>
<path d="M184.641 140.848L150.743 157.797L135.963 132.323L134.93 130.543L168.828 113.594L184.641 140.848Z" fill="#DBDBDB" stroke="white" stroke-width="3.38983" stroke-linecap="round" stroke-linejoin="round"/>
<path d="M184.645 140.848L116.898 179.475L83 196.424L115.864 177.695L150.746 157.797L184.645 140.848Z" fill="#DBDBDB" stroke="white" stroke-width="3.38983" stroke-linecap="round" stroke-linejoin="round"/>
</svg>
