<svg
    width="21"
    height="20"
    viewBox="0 0 21 20"
    fill="none"
    xmlns="http://www.w3.org/2000/svg"
    >
    <path
        d="M10.1523 0C4.63234 0 0.152344 4.48 0.152344 10C0.152344 15.52 4.63234 20 10.1523 20C15.6723 20 20.1523 15.52 20.1523 10C20.1523 4.48 15.6723 0 10.1523 0ZM10.1523 18C5.73234 18 2.15234 14.42 2.15234 10C2.15234 5.58 5.73234 2 10.1523 2C14.5723 2 18.1523 5.58 18.1523 10C18.1523 14.42 14.5723 18 10.1523 18Z"
        fill="#F4B37D"
    />
    <path
        d="M5.15234 11.5C5.98077 11.5 6.65234 10.8284 6.65234 10C6.65234 9.17157 5.98077 8.5 5.15234 8.5C4.32392 8.5 3.65234 9.17157 3.65234 10C3.65234 10.8284 4.32392 11.5 5.15234 11.5Z"
        fill="#F4B37D"
    />
    <path
        d="M10.1523 11.5C10.9808 11.5 11.6523 10.8284 11.6523 10C11.6523 9.17157 10.9808 8.5 10.1523 8.5C9.32392 8.5 8.65234 9.17157 8.65234 10C8.65234 10.8284 9.32392 11.5 10.1523 11.5Z"
        fill="#F4B37D"
    />
    <path
        d="M15.1523 11.5C15.9808 11.5 16.6523 10.8284 16.6523 10C16.6523 9.17157 15.9808 8.5 15.1523 8.5C14.3239 8.5 13.6523 9.17157 13.6523 10C13.6523 10.8284 14.3239 11.5 15.1523 11.5Z"
        fill="#F4B37D"
    />
    </svg>